<svg width="176" height="146" viewBox="0 0 176 146" fill="none" xmlns="http://www.w3.org/2000/svg">
<path d="M6.5 24C6.5 14.0589 14.5589 6 24.5 6H56.5C66.4411 6 74.5 14.0589 74.5 24C74.5 33.9411 66.4411 42 56.5 42H6.5V24Z" stroke="#798F9F" stroke-width="12"/>
<path d="M78.5 122C78.5 112.059 86.5589 104 96.5 104H151.5C161.441 104 169.5 112.059 169.5 122V140H96.5C86.5589 140 78.5 131.941 78.5 122Z" stroke="#798F9F" stroke-width="12"/>
<path d="M6.5 90C6.5 80.0589 14.5589 72 24.5 72H40.5C50.4411 72 58.5 80.0589 58.5 90C58.5 99.9411 50.4411 108 40.5 108H6.5V90Z" stroke="#002845" stroke-width="12"/>
<path d="M101.5 58C101.5 48.0589 109.559 40 119.5 40H151.5C161.441 40 169.5 48.0589 169.5 58V76H119.5C109.559 76 101.5 67.9411 101.5 58Z" stroke="#002845" stroke-width="12"/>
</svg>
