<svg width="129" height="128" viewBox="0 0 129 128" fill="none" xmlns="http://www.w3.org/2000/svg">
<path fill-rule="evenodd" clip-rule="evenodd" d="M64.5 128C99.8462 128 128.5 99.3462 128.5 64C128.5 28.6538 99.8462 0 64.5 0C29.1538 0 0.5 28.6538 0.5 64C0.5 99.3462 29.1538 128 64.5 128ZM64.5 116C93.2188 116 116.5 92.7188 116.5 64C116.5 35.2812 93.2188 12 64.5 12C35.7812 12 12.5 35.2812 12.5 64C12.5 92.7188 35.7812 116 64.5 116Z" fill="#798F9F"/>
<path d="M32.5 69.4227L43.1667 58.6304L53.8186 69.4153L85.8333 37L96.5 47.8306L64.5 80.2076L53.8333 91L32.5 69.4227Z" fill="#002845"/>
</svg>
