<svg width="1339" height="164" viewBox="0 0 1339 164" fill="none" xmlns="http://www.w3.org/2000/svg">
<path d="M730.999 39.452L746.455 43.596L750.599 28.14L735.143 23.996L730.999 39.452Z" fill="#FFD073"/>
<path d="M88 32H104V16H88V32Z" fill="#FFD073"/>
<path d="M1155 78H1169V64H1155V78Z" stroke="#FFD073" stroke-width="2"/>
<path opacity="0.5" d="M945 84.7263L952.727 86.798L954.799 79.0709L947.072 76.9992L945 84.7263Z" fill="#FFD073"/>
<path opacity="0.5" d="M916 151H908V159H916V151Z" fill="#FFD073"/>
<g opacity="0.5">
<path opacity="0.5" d="M1208.18 154.025L1200.69 150.612L1199.61 155.774L1207.11 159.186L1208.18 154.025Z" stroke="#FFD073" stroke-width="1.00012"/>
</g>
<g opacity="0.5">
<path opacity="0.5" d="M615.5 64.5H608.5V71.5H615.5V64.5Z" stroke="#FFD073"/>
</g>
<path d="M456.597 39.144L441.141 35L436.997 50.456L452.453 54.6L456.597 39.144Z" fill="#F64975"/>
<path d="M1339 70H1323V86H1339V70Z" fill="#F64975"/>
<path d="M172.224 57.5457L187.215 64.3711L189.374 54.0466L174.383 47.2211L172.224 57.5457Z" stroke="#F64975" stroke-width="2.00024"/>
<path d="M985 110H999V96H985V110Z" stroke="#F64975" stroke-width="2"/>
<path opacity="0.5" d="M1238 64.7262L1245.73 66.798L1247.8 59.0709L1240.07 56.9992L1238 64.7262Z" fill="#F64975"/>
<path opacity="0.5" d="M134 97H142V89H134V97Z" fill="#F64975"/>
<g opacity="0.5">
<path opacity="0.5" d="M1116.5 72.5H1123.5V65.5H1116.5V72.5Z" stroke="#F64975"/>
</g>
<path d="M839.597 123.144L824.141 119L819.997 134.456L835.453 138.6L839.597 123.144Z" fill="#37C9C7"/>
<path d="M407 130H391V146H407V130Z" fill="#37C9C7"/>
<path d="M1031.22 16.5457L1046.21 23.3712L1048.37 13.0466L1033.38 6.22116L1031.22 16.5457Z" stroke="#37C9C7" stroke-width="2.00024"/>
<path d="M347 103H361V89H347V103Z" stroke="#37C9C7" stroke-width="2"/>
<path opacity="0.5" d="M577.797 152.072L570.07 150L567.998 157.727L575.725 159.799L577.797 152.072Z" fill="#37C9C7"/>
<path opacity="0.5" d="M702 95H694V103H702V95Z" fill="#37C9C7"/>
<g opacity="0.5">
<path opacity="0.5" d="M1079.5 109.5H1086.5V102.5H1079.5V109.5Z" stroke="#37C9C7"/>
</g>
<path d="M1278 128H1294V112H1278V128Z" fill="#9B98FF"/>
<path d="M663.372 146.05L648.381 139.225L646.222 149.549L661.213 156.375L663.372 146.05Z" stroke="#9B98FF" stroke-width="2.00024"/>
<path d="M538 59H524V73H538V59Z" stroke="#9B98FF" stroke-width="2"/>
<path opacity="0.5" d="M789.797 151.072L782.07 149L779.998 156.727L787.725 158.799L789.797 151.072Z" fill="#9B98FF"/>
<path opacity="0.5" d="M494 78H486V86H494V78Z" fill="#9B98FF"/>
<g opacity="0.5">
<path opacity="0.5" d="M869.612 28.7732L877.107 32.1855L878.186 27.0239L870.692 23.6116L869.612 28.7732Z" stroke="#9B98FF" stroke-width="1.00012"/>
</g>
<g opacity="0.5">
<path opacity="0.5" d="M308.5 72.5H315.5V65.5H308.5V72.5Z" stroke="#9B98FF"/>
</g>
<g opacity="0.5">
<path opacity="0.5" d="M49.6124 9.77325L57.1069 13.1856L58.1864 8.02393L50.6918 4.61159L49.6124 9.77325Z" stroke="#F64975" stroke-width="1.00012"/>
</g>
<path d="M221.224 112.546L236.215 119.371L238.374 109.047L223.383 102.221L221.224 112.546Z" stroke="#FFD073" stroke-width="2.00024"/>
<g opacity="0.5">
<path opacity="0.5" d="M269.612 156.773L277.107 160.186L278.186 155.024L270.692 151.612L269.612 156.773Z" stroke="#37C9C7" stroke-width="1.00012"/>
</g>
<path d="M-0.000921421 93.452L15.4551 97.596L19.5991 82.14L4.14307 77.996L-0.000921421 93.452Z" fill="#9B98FF"/>
</svg>
