<svg id="sm_facebook" xmlns="http://www.w3.org/2000/svg" width="19.977" height="19.976" viewBox="0 0 19.977 19.976">
  <path id="Trazado_188" data-name="Trazado 188" d="M19.976,9.989A9.988,9.988,0,1,0,8.427,19.856v-6.98H5.891V9.989H8.427v-2.2A3.525,3.525,0,0,1,12.2,3.9a15.36,15.36,0,0,1,2.236.195V6.556h-1.26a1.443,1.443,0,0,0-1.627,1.561V9.989h2.77l-.443,2.887H11.549v6.98a9.988,9.988,0,0,0,8.428-9.867" transform="translate(0.001 -0.002)" fill="#002845"/>
  <path id="Trazado_189" data-name="Trazado 189" d="M410.652,275.641l.443-2.887h-2.77v-1.873a1.443,1.443,0,0,1,1.627-1.561h1.26v-2.458a15.35,15.35,0,0,0-2.236-.195,3.524,3.524,0,0,0-3.772,3.886v2.2h-2.536v2.887H405.2v6.98a10.1,10.1,0,0,0,3.121,0v-6.981h2.327" transform="translate(-396.775 -262.767)" fill="#fff"/>
</svg>
