<svg id="sm_instagram" xmlns="http://www.w3.org/2000/svg" width="20" height="20" viewBox="0 0 20 20">
  <circle id="Ellipse_4" data-name="Ellipse 4" cx="10" cy="10" r="10" fill="#002845"/>
  <path id="Trazado_209" data-name="Trazado 209" d="M24.377,17c-2,0-2.255.009-3.041.044a5.413,5.413,0,0,0-1.79.343,3.773,3.773,0,0,0-2.158,2.157,5.388,5.388,0,0,0-.343,1.79c-.035.784-.044,1.038-.044,3.041s.009,2.254.044,3.041a5.421,5.421,0,0,0,.343,1.79,3.775,3.775,0,0,0,2.157,2.158,5.418,5.418,0,0,0,1.79.343c.787.036,1.038.044,3.041.044s2.254-.009,3.041-.044a5.421,5.421,0,0,0,1.791-.343,3.779,3.779,0,0,0,2.157-2.158,5.468,5.468,0,0,0,.343-1.79c.036-.787.044-1.038.044-3.041s-.009-2.255-.044-3.041a5.465,5.465,0,0,0-.343-1.79,3.774,3.774,0,0,0-2.157-2.157,5.431,5.431,0,0,0-1.792-.343c-.787-.036-1.038-.044-3.041-.044Zm-.662,1.329h.662c1.97,0,2.2.007,2.981.042a4.084,4.084,0,0,1,1.37.254,2.444,2.444,0,0,1,1.4,1.4,4.076,4.076,0,0,1,.254,1.369c.036.778.043,1.011.043,2.98s-.007,2.2-.043,2.98a4.08,4.08,0,0,1-.254,1.369,2.446,2.446,0,0,1-1.4,1.4,4.069,4.069,0,0,1-1.37.254c-.778.036-1.011.043-2.981.043s-2.2-.007-2.981-.043a4.092,4.092,0,0,1-1.37-.254,2.444,2.444,0,0,1-1.4-1.4,4.076,4.076,0,0,1-.254-1.369c-.036-.778-.042-1.011-.042-2.981s.007-2.2.042-2.98a4.084,4.084,0,0,1,.254-1.37,2.445,2.445,0,0,1,1.4-1.4,4.075,4.075,0,0,1,1.37-.254c.68-.031.944-.04,2.319-.041Zm4.6,1.225a.885.885,0,1,0,.885.885A.885.885,0,0,0,28.315,19.554Zm-3.937,1.034a3.788,3.788,0,1,0,3.787,3.788,3.788,3.788,0,0,0-3.787-3.788Zm0,1.329a2.459,2.459,0,1,1-2.459,2.459,2.459,2.459,0,0,1,2.459-2.459Z" transform="translate(-14.363 -14.364)" fill="#fff"/>
</svg>
