<svg width="444" height="390" viewBox="0 0 444 390" fill="none" xmlns="http://www.w3.org/2000/svg">
<path d="M197.848 42.1745L96.0488 143.973C133.448 181.373 194.248 181.373 231.847 143.973L265.847 109.974C284.646 91.1738 315.046 91.1738 333.646 109.974C350.046 126.373 352.445 151.973 339.446 170.973C360.045 210.172 363.645 256.372 349.046 298.171L401.645 245.572C457.844 189.373 457.844 98.1737 401.645 41.9745C345.246 -14.0248 254.247 -14.0248 197.848 42.1745Z" fill="white"/>
<path d="M118.648 98.7738L96.0487 76.1741C115.248 56.7744 142.048 46.5745 169.248 48.1745L118.648 98.7738ZM243.047 155.373C231.247 167.173 217.047 176.173 201.447 181.573L231.647 211.772C250.447 230.572 250.447 260.972 231.647 279.571C212.847 298.371 182.448 298.371 163.848 279.571L28.0496 143.773C-9.34988 181.173 -9.34988 241.972 28.0496 279.571L95.8487 347.371C152.048 403.57 243.247 403.57 299.446 347.371C355.645 291.171 355.645 199.973 299.446 143.773L276.846 121.174L243.047 155.373Z" fill="#37C9C7"/>
</svg>
