<?xml version="1.0" encoding="utf-8"?>
<!-- Generator: Adobe Illustrator 24.0.0, SVG Export Plug-In . SVG Version: 6.00 Build 0)  -->
<svg version="1.1" id="logo_full" xmlns="http://www.w3.org/2000/svg" xmlns:xlink="http://www.w3.org/1999/xlink" x="0px" y="0px"
	 viewBox="0 0 344 104" style="enable-background:new 0 0 344 104;" xml:space="preserve">
<style type="text/css">
	.st0{fill:#F64975;}
	.st1{fill:#00CFCC;}
	.st2{fill:#002845;}
</style>
<path id="Path_1" class="st0" d="M55.5,13.8L30,39.3c9.4,9.4,24.6,9.4,33.9,0l8.5-8.5c4.7-4.7,12.3-4.7,17,0l0,0
	c4.1,4.1,4.7,10.5,1.4,15.2c5.2,9.8,6,21.3,2.4,31.8l13.1-13.1c14.1-14.1,14.1-36.9,0-50.9l0,0C92.3-0.2,69.5-0.2,55.5,13.8
	C55.5,13.8,55.5,13.8,55.5,13.8L55.5,13.8z"/>
<path id="Path_2" class="st1" d="M35.7,28L30,22.3l0,0c4.8-4.8,11.5-7.4,18.3-7L35.7,28z M66.8,42.1c-2.9,2.9-6.5,5.2-10.4,6.6
	l7.6,7.6c4.7,4.7,4.7,12.3,0,17l0,0c-4.7,4.7-12.3,4.7-17,0L13,39.3l0,0c-9.4,9.4-9.4,24.6,0,33.9l17,17c14.1,14.1,36.9,14.1,50.9,0
	l0,0C95,76.1,95,53.3,80.9,39.3l-5.7-5.7L66.8,42.1z"/>
<path class="st2" d="M131.5,88.4c-0.6,0.6-1.5,0.8-2.6,0.8h-0.3c-1.1,0-2-0.3-2.6-0.8c-0.6-0.6-0.9-1.4-0.9-2.5V75.4h1.7v10.9
	c0,0.4,0.2,0.8,0.5,1.1s0.7,0.4,1.2,0.4h0.7c0.5,0,0.9-0.1,1.2-0.4c0.3-0.3,0.5-0.6,0.5-1.1V75.4h1.7v10.5
	C132.4,87,132.1,87.9,131.5,88.4z M135.6,79.4h1.6v0.5c0.4-0.3,0.9-0.5,1.6-0.5h0.5c1.1,0,1.9,0.3,2.4,0.8c0.5,0.5,0.8,1.3,0.8,2.4
	v6.7h-1.7v-7.1c0-0.4-0.1-0.7-0.3-0.9c-0.2-0.2-0.5-0.3-0.9-0.3h-0.9c-0.4,0-0.8,0.1-1,0.3s-0.3,0.5-0.3,0.7v7.3h-1.7V79.4z
	 M145.4,77.2v-1.8h1.9v1.8H145.4z M145.5,89.3v-9.9h1.7v9.9H145.5z M151,88.5c-0.5-0.5-0.8-1.3-0.8-2.4v-3.6c0-1.1,0.2-1.9,0.7-2.4
	c0.5-0.5,1.3-0.7,2.4-0.7h0.5c0.9,0,1.6,0.3,2.1,0.8c0.5,0.5,0.7,1.3,0.7,2.3V85h-4.9v1.5c0,0.4,0.1,0.7,0.4,1
	c0.3,0.2,0.6,0.3,1.1,0.3h2.8v1.5h-2.6C152.4,89.3,151.5,89,151,88.5z M155.1,83.5V82c0-0.3-0.1-0.6-0.3-0.9
	c-0.2-0.2-0.5-0.3-0.9-0.3h-0.8c-0.5,0-0.8,0.1-1,0.3c-0.2,0.2-0.3,0.5-0.3,1v1.4H155.1z M159.6,79.4h1.6v0.5
	c0.4-0.3,0.9-0.5,1.6-0.5h0.5c1.1,0,1.9,0.3,2.4,0.8c0.5,0.5,0.8,1.3,0.8,2.4v6.7h-1.7v-7.1c0-0.4-0.1-0.7-0.3-0.9
	c-0.2-0.2-0.5-0.3-0.9-0.3h-0.9c-0.4,0-0.8,0.1-1,0.3s-0.3,0.5-0.3,0.7v7.3h-1.7V79.4z M174.7,88.8c-0.4,0.3-1,0.5-1.6,0.5h-0.4
	c-1.2,0-2-0.2-2.6-0.7c-0.5-0.5-0.8-1.3-0.8-2.4v-3.6c0-1.1,0.3-1.9,0.8-2.4c0.5-0.5,1.4-0.8,2.5-0.8h1.9v-4h1.7v13.9h-1.6V88.8z
	 M174.3,87.4c0.2-0.2,0.3-0.5,0.3-0.7v-5.8h-2.1c-0.5,0-0.9,0.1-1.1,0.3c-0.3,0.2-0.4,0.5-0.4,1v4.4c0,0.4,0.1,0.7,0.4,1
	c0.3,0.2,0.6,0.3,1.1,0.3h0.8C173.8,87.8,174.1,87.7,174.3,87.4z M185.4,88.5c-0.5,0.5-1.4,0.8-2.5,0.8h-0.3c-1.1,0-2-0.3-2.5-0.8
	c-0.5-0.5-0.8-1.3-0.8-2.4v-3.6c0-1.1,0.3-1.9,0.8-2.4c0.5-0.5,1.4-0.8,2.5-0.8h0.3c1.1,0,2,0.3,2.5,0.8c0.5,0.5,0.8,1.3,0.8,2.4
	v3.6C186.3,87.2,186,88,185.4,88.5z M184.2,81.2c-0.3-0.2-0.6-0.3-1.1-0.3h-0.7c-0.5,0-0.9,0.1-1.1,0.3c-0.3,0.2-0.4,0.5-0.4,1v4.4
	c0,0.4,0.1,0.7,0.4,1c0.3,0.2,0.6,0.3,1.1,0.3h0.7c0.5,0,0.9-0.1,1.1-0.3c0.3-0.2,0.4-0.5,0.4-1v-4.4
	C184.6,81.7,184.4,81.4,184.2,81.2z M199.7,89.1c-0.2-0.1-0.4-0.3-0.5-0.4c-0.3,0.4-0.7,0.6-1.2,0.6h-1.4c-1,0-1.7-0.2-2.2-0.6
	c-0.5-0.4-0.7-1.1-0.7-2.1v-0.4c0-2,1-3.1,2.9-3.1h2.1v-1c0-0.4-0.1-0.7-0.4-1c-0.3-0.2-0.6-0.3-1.1-0.3h-2.7v-1.5h2.5
	c1.2,0,2,0.3,2.5,0.8c0.5,0.5,0.8,1.3,0.8,2.4v4.8c0,0.2,0.1,0.3,0.2,0.4c0.2,0.1,0.4,0.1,0.8,0.1v1.4h-1.1
	C200,89.3,199.9,89.2,199.7,89.1z M198.5,87.5c0.1-0.2,0.2-0.4,0.2-0.7v-2.2h-2.1c-0.3,0-0.6,0.1-0.9,0.3c-0.2,0.2-0.3,0.5-0.3,0.9
	v1c0,0.3,0.1,0.6,0.2,0.8c0.2,0.2,0.4,0.2,0.8,0.2h1.4C198.1,87.8,198.4,87.7,198.5,87.5z M214.1,89.1c-0.2-0.1-0.4-0.3-0.5-0.4
	c-0.3,0.4-0.7,0.6-1.2,0.6H211c-1,0-1.7-0.2-2.2-0.6c-0.5-0.4-0.7-1.1-0.7-2.1v-0.4c0-2,1-3.1,2.9-3.1h2.1v-1c0-0.4-0.1-0.7-0.4-1
	c-0.3-0.2-0.6-0.3-1.1-0.3h-2.7v-1.5h2.5c1.1,0,2,0.3,2.5,0.8c0.5,0.5,0.8,1.3,0.8,2.4v4.8c0,0.2,0.1,0.3,0.2,0.4
	c0.2,0.1,0.4,0.1,0.8,0.1v1.4h-1.1C214.5,89.3,214.3,89.2,214.1,89.1z M212.9,87.5c0.1-0.2,0.2-0.4,0.2-0.7v-2.2H211
	c-0.3,0-0.6,0.1-0.9,0.3c-0.2,0.2-0.3,0.5-0.3,0.9v1c0,0.3,0.1,0.6,0.2,0.8c0.2,0.2,0.4,0.2,0.8,0.2h1.4
	C212.6,87.8,212.8,87.7,212.9,87.5z M218.1,79.4h1.6v0.5c0.4-0.4,1-0.5,1.6-0.5h1.4v1.6h-1.6c-0.4,0-0.8,0.1-1,0.4
	c-0.2,0.3-0.3,0.6-0.3,0.9v7h-1.7V79.4z M225.4,88.6c-0.4-0.4-0.5-1-0.5-1.7v-6h-1.3v-1.5h1.3V77h1.7v2.4h2.3v1.5h-2.3V87
	c0,0.3,0.1,0.5,0.2,0.6c0.1,0.1,0.4,0.2,0.7,0.2h1.4v1.5h-1.9C226.2,89.3,225.7,89,225.4,88.6z M230.8,77.2v-1.8h1.9v1.8H230.8z
	 M230.9,89.3v-9.9h1.7v9.9H230.9z M240.2,88.7c-0.5,0.4-1.2,0.6-2.2,0.6h-2.6v-1.5h2.8c0.4,0,0.6-0.1,0.8-0.2
	c0.2-0.2,0.3-0.4,0.3-0.7v-1.1c0-0.6-0.3-0.9-0.9-0.9h-0.3c-0.9,0-1.6-0.2-2.1-0.6s-0.7-1-0.7-1.9v-0.6c0-0.9,0.3-1.5,0.8-1.9
	c0.5-0.4,1.2-0.6,2.2-0.6h2.3v1.5h-2.5c-0.3,0-0.6,0.1-0.8,0.2c-0.2,0.2-0.3,0.4-0.3,0.7v0.7c0,0.3,0.1,0.5,0.3,0.7
	c0.2,0.1,0.4,0.2,0.7,0.2h0.3c0.9,0,1.6,0.2,2,0.6s0.7,1.1,0.7,1.9v0.9C241,87.6,240.7,88.2,240.2,88.7z M244.3,88.6
	c-0.4-0.4-0.5-1-0.5-1.7v-6h-1.3v-1.5h1.3V77h1.7v2.4h2.3v1.5h-2.3V87c0,0.3,0.1,0.5,0.2,0.6c0.1,0.1,0.4,0.2,0.7,0.2h1.4v1.5h-1.9
	C245.2,89.3,244.7,89,244.3,88.6z M255.1,89.1c-0.2-0.1-0.4-0.3-0.5-0.4c-0.3,0.4-0.7,0.6-1.2,0.6H252c-1,0-1.7-0.2-2.2-0.6
	c-0.5-0.4-0.7-1.1-0.7-2.1v-0.4c0-2,1-3.1,2.9-3.1h2.1v-1c0-0.4-0.1-0.7-0.4-1c-0.3-0.2-0.6-0.3-1.1-0.3h-2.7v-1.5h2.5
	c1.2,0,2,0.3,2.5,0.8c0.5,0.5,0.8,1.3,0.8,2.4v4.8c0,0.2,0.1,0.3,0.2,0.4c0.2,0.1,0.4,0.1,0.8,0.1v1.4h-1.1
	C255.5,89.3,255.3,89.2,255.1,89.1z M253.9,87.5c0.1-0.2,0.2-0.4,0.2-0.7v-2.2H252c-0.3,0-0.6,0.1-0.9,0.3c-0.2,0.2-0.3,0.5-0.3,0.9
	v1c0,0.3,0.1,0.6,0.2,0.8c0.2,0.2,0.4,0.2,0.8,0.2h1.4C253.6,87.8,253.8,87.7,253.9,87.5z M263.6,88.7c-0.5,0.4-1.2,0.6-2.2,0.6
	h-2.6v-1.5h2.8c0.4,0,0.6-0.1,0.8-0.2s0.3-0.4,0.3-0.7v-1.1c0-0.6-0.3-0.9-0.9-0.9h-0.3c-0.9,0-1.6-0.2-2.1-0.6
	c-0.5-0.4-0.7-1-0.7-1.9v-0.6c0-0.9,0.3-1.5,0.8-1.9c0.5-0.4,1.2-0.6,2.2-0.6h2.3v1.5h-2.5c-0.3,0-0.6,0.1-0.8,0.2
	c-0.2,0.2-0.3,0.4-0.3,0.7v0.7c0,0.3,0.1,0.5,0.3,0.7c0.2,0.1,0.4,0.2,0.7,0.2h0.3c0.9,0,1.6,0.2,2,0.6c0.5,0.4,0.7,1.1,0.7,1.9v0.9
	C264.4,87.6,264.1,88.2,263.6,88.7z M275.7,91.6c-0.2,0.4-0.4,0.6-0.7,0.9c-0.3,0.2-0.7,0.3-1.2,0.3c-0.3,0-0.7,0-1.1-0.1v-1.4
	c0.4,0.1,0.7,0.1,1,0.1c0.4,0,0.6-0.3,0.8-0.9l0.3-1.1h-0.4l-3.1-9.9h1.8l2.3,8.2l1.9-8.2h1.7l-2.9,10.8
	C276.1,90.7,275.9,91.2,275.7,91.6z M287.1,88.5c-0.5-0.5-0.8-1.3-0.8-2.4v-3.6c0-1.1,0.3-1.9,0.8-2.4c0.5-0.5,1.4-0.8,2.5-0.8h2.2
	v1.5h-2.4c-0.5,0-0.9,0.1-1.1,0.3c-0.3,0.2-0.4,0.5-0.4,1v4.4c0,0.4,0.1,0.7,0.4,1c0.3,0.2,0.6,0.3,1.1,0.3h2.4v1.5h-2.2
	C288.5,89.3,287.7,89,287.1,88.5z M294.8,88.8c-0.3-0.3-0.5-0.8-0.5-1.5V75.4h1.7v11.8c0,0.2,0.1,0.4,0.2,0.5
	c0.1,0.1,0.3,0.1,0.5,0.1h0.4v1.5H296C295.6,89.3,295.2,89.1,294.8,88.8z M299.3,77.2v-1.8h1.9v1.8H299.3z M299.4,89.3v-9.9h1.7v9.9
	H299.4z M304.8,88.5c-0.5-0.5-0.8-1.3-0.8-2.4v-3.6c0-1.1,0.2-1.9,0.7-2.4c0.5-0.5,1.3-0.7,2.4-0.7h0.5c0.9,0,1.6,0.3,2.1,0.8
	c0.5,0.5,0.7,1.3,0.7,2.3V85h-4.9v1.5c0,0.4,0.1,0.7,0.4,1c0.3,0.2,0.6,0.3,1.1,0.3h2.8v1.5h-2.6C306.2,89.3,305.4,89,304.8,88.5z
	 M308.9,83.5V82c0-0.3-0.1-0.6-0.3-0.9c-0.2-0.2-0.5-0.3-0.9-0.3H307c-0.5,0-0.8,0.1-1,0.3c-0.2,0.2-0.3,0.5-0.3,1v1.4H308.9z
	 M313.5,79.4h1.6v0.5c0.4-0.3,0.9-0.5,1.6-0.5h0.5c1.1,0,1.9,0.3,2.4,0.8c0.5,0.5,0.8,1.3,0.8,2.4v6.7h-1.7v-7.1
	c0-0.4-0.1-0.7-0.3-0.9s-0.5-0.3-0.9-0.3h-0.9c-0.4,0-0.8,0.1-1,0.3c-0.2,0.2-0.3,0.5-0.3,0.7v7.3h-1.7V79.4z M324,88.6
	c-0.4-0.4-0.5-1-0.5-1.7v-6h-1.3v-1.5h1.3V77h1.7v2.4h2.3v1.5h-2.3V87c0,0.3,0.1,0.5,0.2,0.6c0.1,0.1,0.4,0.2,0.7,0.2h1.4v1.5h-1.9
	C324.9,89.3,324.4,89,324,88.6z M330.2,88.5c-0.5-0.5-0.8-1.3-0.8-2.4v-3.6c0-1.1,0.2-1.9,0.7-2.4c0.5-0.5,1.3-0.7,2.4-0.7h0.5
	c0.9,0,1.6,0.3,2.1,0.8c0.5,0.5,0.7,1.3,0.7,2.3V85H331v1.5c0,0.4,0.1,0.7,0.4,1c0.3,0.2,0.6,0.3,1.1,0.3h2.8v1.5h-2.6
	C331.5,89.3,330.7,89,330.2,88.5z M334.3,83.5V82c0-0.3-0.1-0.6-0.3-0.9c-0.2-0.2-0.5-0.3-0.9-0.3h-0.8c-0.5,0-0.8,0.1-1,0.3
	c-0.2,0.2-0.3,0.5-0.3,1v1.4H334.3z M343.2,88.7c-0.5,0.4-1.2,0.6-2.2,0.6h-2.6v-1.5h2.8c0.4,0,0.6-0.1,0.8-0.2
	c0.2-0.2,0.3-0.4,0.3-0.7v-1.1c0-0.6-0.3-0.9-0.9-0.9h-0.3c-0.9,0-1.6-0.2-2.1-0.6c-0.5-0.4-0.7-1-0.7-1.9v-0.6
	c0-0.9,0.3-1.5,0.8-1.9c0.5-0.4,1.2-0.6,2.2-0.6h2.3v1.5h-2.5c-0.3,0-0.6,0.1-0.8,0.2c-0.2,0.2-0.3,0.4-0.3,0.7v0.7
	c0,0.3,0.1,0.5,0.3,0.7c0.2,0.1,0.4,0.2,0.7,0.2h0.3c0.9,0,1.6,0.2,2,0.6s0.7,1.1,0.7,1.9v0.9C344,87.6,343.7,88.2,343.2,88.7z"/>
<path class="st2" d="M161,4v42c0,9.9-8.1,18-18,18s-18-8.1-18-18V4h12v42c0,3.3,2.7,6,6,6s6-2.7,6-6V4H161z M203,64V22
	c0-9.9-8.1-18-18-18s-18,8.1-18,18v42h12V22c0-3.3,2.7-6,6-6s6,2.7,6,6v42H203z M221,4h-12v60h12V4z M344,4h-12h-12h-12v12h12v48h12
	V16h12V4z M263,22v42h-12V40h-12v24h-12V22c0-9.9,8.1-18,18-18S263,12.1,263,22z M251,28v-6c0-3.3-2.7-6-6-6s-6,2.7-6,6v6H251z
	 M305,22c0,4.6-1.8,8.8-4.6,12c2.9,3.2,4.6,7.4,4.6,12v18h-12l0-18c0-3.3-2.7-6-6-6h-6l0,24h-12V40V28V4h18C296.9,4,305,12.1,305,22
	L305,22z M287,28c3.3,0,6-2.7,6-6s-2.7-6-6-6h-6v12H287z"/>
</svg>
