<?xml version="1.0" encoding="utf-8"?>
<!-- Generator: Adobe Illustrator 24.0.0, SVG Export Plug-In . SVG Version: 6.00 Build 0)  -->
<svg version="1.1" id="logo" xmlns="http://www.w3.org/2000/svg" xmlns:xlink="http://www.w3.org/1999/xlink" x="0px" y="0px"
	 viewBox="0 0 232 72" style="enable-background:new 0 0 232 72;" xml:space="preserve">
<style type="text/css">
	.st0{fill:#002845;}
	.st1{fill:#F64975;}
	.st2{fill:#00CFCC;}
</style>
<g id="Group_1" transform="translate(-161 -241)">
	<path id="T" class="st0" d="M377,296.5v-32h-8v-8h24v8h-8v32H377z"/>
	<path id="R" class="st0" d="M351,296.5h-8v-40h12c6.6,0,12,5.4,12,12c0,3.2-1.3,6.2-3.5,8.5c-0.4,0.4-0.9,0.8-1.4,1.2
		c3.2,3.3,4.9,7.7,4.9,12.3v6h-8v-10c0-3.3-2.7-6-6-6h-2V296.5L351,296.5z M351,272.5h4c2.2,0,4-1.8,4-4c0-2.2-1.8-4-4-4h-4V272.5z"
		/>
	<path id="A" class="st0" d="M323,296.5h-8v-28c0-6.6,5.4-12,12-12c3.2,0,6.2,1.3,8.5,3.5c2.3,2.2,3.5,5.3,3.5,8.5v28h-8v-16h-8
		V296.5z M327,264.5c-2.2,0-4,1.8-4,4v4h8v-4C331,266.3,329.2,264.5,327,264.5z"/>
	<rect id="I" x="303" y="256.5" class="st0" width="8" height="40"/>
	<path id="N" class="st0" d="M283,296.5h-8v-28c0-6.6,5.4-12,12-12c3.2,0,6.2,1.3,8.5,3.5c2.3,2.2,3.5,5.3,3.5,8.5v28h-8v-28
		c0-2.2-1.8-4-4-4s-4,1.8-4,4V296.5z"/>
	<path id="U" class="st0" d="M259,296.5c-6.6,0-12-5.4-12-12v-28h8v28c0,2.2,1.8,4,4,4s4-1.8,4-4v-28h8v28
		C271,291.1,265.6,296.5,259,296.5z"/>
</g>
<g id="UniArt" transform="translate(-0.002 0.032)">
	<path id="Path_1" class="st1" d="M37,10.5l-17,17c6.2,6.2,16.4,6.2,22.6,0l5.7-5.7c3.1-3.1,8.2-3.1,11.3,0l0,0
		c2.7,2.7,3.1,7,0.9,10.2c3.4,6.5,4,14.2,1.6,21.2l8.8-8.8c9.4-9.4,9.4-24.6,0-33.9l0,0C61.6,1.1,46.4,1.1,37,10.5
		C37,10.5,37,10.5,37,10.5L37,10.5z"/>
	<path id="Path_2" class="st2" d="M23.8,19.9L20,16.2l0,0c3.2-3.2,7.7-4.9,12.2-4.7L23.8,19.9z M44.5,29.4c-2,2-4.3,3.5-6.9,4.4l5,5
		c3.1,3.1,3.1,8.2,0,11.3l0,0c-3.1,3.1-8.2,3.1-11.3,0L8.7,27.5l0,0c-6.2,6.2-6.2,16.4,0,22.6L20,61.4c9.4,9.4,24.6,9.4,33.9,0l0,0
		c9.4-9.4,9.4-24.6,0-33.9l-3.8-3.8L44.5,29.4z"/>
</g>
</svg>
