<svg width="33" height="33" viewBox="0 0 33 33" fill="none" xmlns="http://www.w3.org/2000/svg">
<path d="M4.51856 18.1511C4.51944 15.9492 5.03122 13.7777 6.01427 11.8075C6.99732 9.83733 8.42464 8.12232 10.1834 6.79759C11.9421 5.47286 13.9846 4.5746 16.1496 4.17358C18.3146 3.77257 20.5436 3.87974 22.6601 4.48667C24.7767 5.0936 26.7223 6.1837 28.3458 7.67109C29.9693 9.15848 31.2255 11.0025 32.0149 13.058C32.8044 15.1134 33.1058 17.3241 32.8954 19.5158C32.685 21.7076 31.9686 23.8205 30.8025 25.6882L32.7093 32.0429L26.8154 29.86C24.6806 31.3329 22.184 32.1939 19.5951 32.35C17.0062 32.506 14.4239 31.9511 12.1277 30.7453C9.83145 29.5395 7.90961 27.7287 6.56839 25.5088C5.22717 23.289 4.5179 20.7446 4.51856 18.1511Z" fill="#798F9F"/>
<path d="M7.18925 26.3574L1.30501 28.536L3.19235 22.2439C1.29803 19.2746 0.573163 15.708 1.15779 12.2348C1.74243 8.76151 3.59536 5.62878 6.35737 3.44324C9.11939 1.25771 12.5934 0.174887 16.108 0.404469C19.6226 0.634052 22.928 2.15971 25.3822 4.68598C27.8365 7.21225 29.2652 10.5594 29.393 14.0791C29.5208 17.5989 28.3383 21.041 26.0738 23.7386C23.8093 26.4362 20.6244 28.1976 17.1357 28.6815C13.647 29.1655 10.1025 28.3375 7.18925 26.3581V26.3574Z" fill="#002845"/>
</svg>
