<svg xmlns="http://www.w3.org/2000/svg" width="56" height="56" viewBox="0 0 56 56">
  <g id="notification" transform="translate(-141 -296)">
    <circle id="Ellipse_13" data-name="Ellipse 13" cx="6" cy="6" r="6" transform="translate(163 340)" fill="#002845"/>
    <path id="bell" d="M22056,918h-56v-8a8.011,8.011,0,0,0,8-8c0-.095,0-.19-.006-.283V894.95a21.418,21.418,0,0,1,3.982-12.544,20.5,20.5,0,0,1,4.457-4.552,19.553,19.553,0,0,1,5.637-2.921,6.365,6.365,0,0,1-.072-.93,6,6,0,1,1,12,0,6.478,6.478,0,0,1-.072.936,19.531,19.531,0,0,1,5.637,2.918,20.483,20.483,0,0,1,4.457,4.55A21.414,21.414,0,0,1,22048,894.95v6.765c0,.094-.006.189-.006.284a8.011,8.011,0,0,0,8,8v8Z" transform="translate(-21859 -572)" fill="#798f9f"/>
  </g>
</svg>
