<svg xmlns="http://www.w3.org/2000/svg" width="48.002" height="47.996" viewBox="0 0 48.002 47.996">
  <g id="organizer" transform="translate(-233.998 -432.002)">
    <path id="Subtraction_10" data-name="Subtraction 10" d="M22040,906h-32a8.008,8.008,0,0,1-8-8V866a8.008,8.008,0,0,1,8-8h32a8.008,8.008,0,0,1,8,8v32A8.008,8.008,0,0,1,22040,906ZM22008,892h0v4h32v-4h-32Zm0-12h0v4h32v-4h-32Zm0-12h0v4h32v-4h-32Z" transform="translate(-21766 -426)" fill="#798f9f"/>
    <rect id="Rectangle_96" data-name="Rectangle 96" width="24" height="4" transform="translate(242 442)" fill="#002845"/>
    <rect id="Rectangle_96-2" data-name="Rectangle 96" width="8" height="4" transform="translate(242 454)" fill="#002845"/>
    <rect id="Rectangle_96-3" data-name="Rectangle 96" width="16" height="4" transform="translate(242 466)" fill="#002845"/>
  </g>
</svg>
