<svg xmlns="http://www.w3.org/2000/svg" width="48.002" height="40" viewBox="0 0 48.002 40">
  <g id="buy" transform="translate(-312.998 -440.999)">
    <path id="Path_8" data-name="Path 8" d="M0,0H40L36,16H4Z" transform="translate(321 449)" fill="#798f9f"/>
    <path id="Path_9" data-name="Path 9" d="M22032,904a4,4,0,1,1,4,4A4,4,0,0,1,22032,904Zm-16,0a4,4,0,1,1,4,4A4,4,0,0,1,22016,904Zm-1-4a6.858,6.858,0,0,1-3.348-1.82l-7.014-26.18H22002a2,2,0,1,1,0-4h4a3.385,3.385,0,0,1,2.275,2.1l6.936,25.9H22043a2,2,0,0,1,0,4Z" transform="translate(-21687 -427)" fill="#002845"/>
  </g>
</svg>
