<svg width="14" height="16" viewBox="0 0 14 16" fill="none" xmlns="http://www.w3.org/2000/svg">
<path d="M1 3C1 1.89543 1.89543 1 3 1H11C12.1046 1 13 1.89543 13 3V14C13 15.1046 12.1046 16 11 16H3C1.89543 16 1 15.1046 1 14V3Z" fill="#798F9F"/>
<path d="M8.73244 1C8.38663 0.402199 7.74028 0 7 0C6.25972 0 5.61337 0.402199 5.26756 1H2.66667C1.19391 1 0 2.19391 0 3.66667C0 4.40305 0.596954 5 1.33333 5H12.6667C13.403 5 14 4.40305 14 3.66667C14 2.19391 12.8061 1 11.3333 1H8.73244Z" fill="black"/>
<path d="M3 7C3 6.44772 3.44772 6 4 6C4.55228 6 5 6.44772 5 7V13C5 13.5523 4.55228 14 4 14C3.44772 14 3 13.5523 3 13V7Z" fill="black"/>
<path d="M7 6C6.44772 6 6 6.44772 6 7V13C6 13.5523 6.44772 14 7 14C7.55228 14 8 13.5523 8 13V7C8 6.44772 7.55228 6 7 6Z" fill="black"/>
<path d="M9 7C9 6.44772 9.44771 6 10 6C10.5523 6 11 6.44772 11 7V13C11 13.5523 10.5523 14 10 14C9.44771 14 9 13.5523 9 13V7Z" fill="black"/>
</svg>
