<svg width="37" height="42" viewBox="0 0 37 42" fill="none" xmlns="http://www.w3.org/2000/svg">
<path d="M2.625 7.875C2.625 4.9755 4.97551 2.625 7.875 2.625H28.875C31.7745 2.625 34.125 4.97551 34.125 7.875V36.75C34.125 39.6495 31.7745 42 28.875 42H7.875C4.97551 42 2.625 39.6495 2.625 36.75V7.875Z" fill="#DEEAF4"/>
<path d="M22.9226 2.625C22.0149 1.05577 20.3182 0 18.375 0C16.4318 0 14.7351 1.05577 13.8274 2.625H7C3.13401 2.625 0 5.75901 0 9.625C0 11.558 1.567 13.125 3.5 13.125H33.25C35.183 13.125 36.75 11.558 36.75 9.625C36.75 5.75901 33.616 2.625 29.75 2.625H22.9226Z" fill="#798F9F"/>
<path d="M7.875 18.375C7.875 16.9253 9.05025 15.75 10.5 15.75C11.9497 15.75 13.125 16.9253 13.125 18.375V34.125C13.125 35.5747 11.9497 36.75 10.5 36.75C9.05025 36.75 7.875 35.5747 7.875 34.125V18.375Z" fill="#798F9F"/>
<path d="M18.375 15.75C16.9253 15.75 15.75 16.9253 15.75 18.375V34.125C15.75 35.5747 16.9253 36.75 18.375 36.75C19.8247 36.75 21 35.5747 21 34.125V18.375C21 16.9253 19.8247 15.75 18.375 15.75Z" fill="#798F9F"/>
<path d="M23.625 18.375C23.625 16.9253 24.8003 15.75 26.25 15.75C27.6997 15.75 28.875 16.9253 28.875 18.375V34.125C28.875 35.5747 27.6997 36.75 26.25 36.75C24.8003 36.75 23.625 35.5747 23.625 34.125V18.375Z" fill="#798F9F"/>
</svg>
