<svg xmlns="http://www.w3.org/2000/svg" width="54.002" height="52.789" viewBox="0 0 54.002 52.789">
  <g id="hand" transform="translate(-261 -309.211)">
    <path id="Path_10" data-name="Path 10" d="M22012,921.135a12,12,0,0,1-12-12v-6a11.939,11.939,0,0,1,1.41-5.648l6.35-23.69a5.993,5.993,0,0,1,7.346-4.243,10,10,0,0,1,7.074,12.246l-2.5,9.337H22028a12,12,0,0,1,12,12v6a12,12,0,0,1-12,12Z" transform="translate(-21725 -560.136)" fill="#798f9f"/>
    <rect id="Rectangle_92" data-name="Rectangle 92" width="12" height="31" transform="translate(261 331)" fill="#002845"/>
  </g>
</svg>
