<svg width="19" height="19" viewBox="0 0 19 19" fill="none" xmlns="http://www.w3.org/2000/svg">
<path d="M12.4142 15.4142C11.6332 14.6332 11.6332 13.3668 12.4142 12.5858C13.1953 11.8047 14.4616 11.8047 15.2426 12.5858L18.0711 15.4142C18.8521 16.1953 18.8521 17.4616 18.0711 18.2426C17.29 19.0237 16.0237 19.0237 15.2426 18.2426L12.4142 15.4142Z" fill="#002845"/>
<path fill-rule="evenodd" clip-rule="evenodd" d="M8 16C12.4183 16 16 12.4183 16 8C16 3.58172 12.4183 0 8 0C3.58172 0 0 3.58172 0 8C0 12.4183 3.58172 16 8 16ZM8 13C10.7614 13 13 10.7614 13 8C13 5.23858 10.7614 3 8 3C5.23858 3 3 5.23858 3 8C3 10.7614 5.23858 13 8 13Z" fill="#002845"/>
</svg>
