<?xml version="1.0" encoding="utf-8"?>
<!-- Generator: Adobe Illustrator 24.0.0, SVG Export Plug-In . SVG Version: 6.00 Build 0)  -->
<svg version="1.1" id="Capa_1" xmlns="http://www.w3.org/2000/svg" xmlns:xlink="http://www.w3.org/1999/xlink" x="0px" y="0px"
	 viewBox="0 0 256 256" style="enable-background:new 0 0 256 256;" xml:space="preserve">
<style type="text/css">
	.st0{fill:#F64975;}
	.st1{fill:#00CFCC;}
</style>
<title>UniArt</title>
<path class="st0" d="M116,51.6l-50.9,50.9c18.7,18.7,49.1,18.7,67.9,0l17-17c9.4-9.4,24.6-9.4,33.9,0l0,0c8.2,8.2,9.4,21,2.9,30.5
	c10.3,19.6,12.1,42.7,4.8,63.6l26.3-26.3c28.1-28.1,28.1-73.7,0-101.8l0,0C189.7,23.5,144.2,23.5,116,51.6
	C116,51.6,116,51.6,116,51.6z"/>
<path class="st1" d="M76.4,79.9L65.1,68.6l0,0c9.6-9.7,23-14.8,36.6-14L76.4,79.9z M138.6,108.2c-5.9,5.9-13,10.4-20.8,13.1
	l15.1,15.1c9.4,9.4,9.4,24.6,0,33.9l0,0c-9.4,9.4-24.6,9.4-33.9,0l-67.9-67.9l0,0c-18.7,18.7-18.7,49.1,0,67.9l33.9,33.9
	c28.1,28.1,73.7,28.1,101.8,0l0,0c28.1-28.1,28.1-73.7,0-101.8l-11.3-11.3L138.6,108.2z"/>
</svg>
