<svg id="PortadaBg" xmlns="http://www.w3.org/2000/svg" width="1366" height="170.75" viewBox="0 0 1366 170.75">
  <rect id="Rectangle_41" data-name="Rectangle 41" width="1366" height="170.75" fill="#002845"/>
  <g id="Group_2" data-name="Group 2" transform="translate(-5 -64)">
    <rect id="Rectangle_42" data-name="Rectangle 42" width="16" height="16" transform="matrix(-0.966, -0.259, 0.259, -0.966, 765.455, 109.596)" fill="#ff9973"/>
    <rect id="Rectangle_73" data-name="Rectangle 73" width="16" height="16" transform="translate(123 98) rotate(180)" fill="#ff9973"/>
    <g id="Rectangle_60" data-name="Rectangle 60" transform="translate(1189 145) rotate(180)" fill="none" stroke="#ff9973" stroke-width="2">
      <rect width="16" height="16" stroke="none"/>
      <rect x="1" y="1" width="14" height="14" fill="none"/>
    </g>
    <rect id="Rectangle_50" data-name="Rectangle 50" width="8" height="8" transform="matrix(-0.966, -0.259, 0.259, -0.966, 971.727, 152.798)" fill="#ff9973" opacity="0.5"/>
    <rect id="Rectangle_69" data-name="Rectangle 69" width="8" height="8" transform="translate(927 217)" fill="#ff9973" opacity="0.5"/>
    <g id="Rectangle_56" data-name="Rectangle 56" transform="matrix(0.966, 0.259, -0.259, 0.966, 1220.07, 216)" fill="none" stroke="#ff9973" stroke-width="1" opacity="0.5">
      <rect width="8" height="8" stroke="none"/>
      <rect x="0.5" y="0.5" width="7" height="7" fill="none"/>
    </g>
    <g id="Rectangle_66" data-name="Rectangle 66" transform="translate(627 130)" fill="none" stroke="#ff9973" stroke-width="1" opacity="0.5">
      <rect width="8" height="8" stroke="none"/>
      <rect x="0.5" y="0.5" width="7" height="7" fill="none"/>
    </g>
    <rect id="Rectangle_43" data-name="Rectangle 43" width="16" height="16" transform="matrix(0.966, 0.259, -0.259, 0.966, 460.141, 101)" fill="#f64975"/>
    <rect id="Rectangle_68" data-name="Rectangle 68" width="16" height="16" transform="translate(1342 136)" fill="#f64975"/>
    <g id="Rectangle_51" data-name="Rectangle 51" transform="matrix(-0.966, -0.259, 0.259, -0.966, 205.455, 131.596)" fill="none" stroke="#f64975" stroke-width="2">
      <rect width="16" height="16" stroke="none"/>
      <rect x="1" y="1" width="14" height="14" fill="none"/>
    </g>
    <g id="Rectangle_62" data-name="Rectangle 62" transform="translate(1019 177) rotate(180)" fill="none" stroke="#f64975" stroke-width="2">
      <rect width="16" height="16" stroke="none"/>
      <rect x="1" y="1" width="14" height="14" fill="none"/>
    </g>
    <rect id="Rectangle_49" data-name="Rectangle 49" width="8" height="8" transform="matrix(-0.966, -0.259, 0.259, -0.966, 1264.727, 132.798)" fill="#f64975" opacity="0.5"/>
    <rect id="Rectangle_72" data-name="Rectangle 72" width="8" height="8" transform="translate(161 163) rotate(180)" fill="#f64975" opacity="0.5"/>
    <g id="Rectangle_74" data-name="Rectangle 74" transform="translate(1143 139) rotate(180)" fill="none" stroke="#f64975" stroke-width="1" opacity="0.5">
      <rect width="8" height="8" stroke="none"/>
      <rect x="0.5" y="0.5" width="7" height="7" fill="none"/>
    </g>
    <rect id="Rectangle_44" data-name="Rectangle 44" width="16" height="16" transform="matrix(0.966, 0.259, -0.259, 0.966, 843.141, 185)" fill="#00cfcc"/>
    <rect id="Rectangle_63" data-name="Rectangle 63" width="16" height="16" transform="translate(410 196)" fill="#00cfcc"/>
    <g id="Rectangle_52" data-name="Rectangle 52" transform="matrix(-0.966, -0.259, 0.259, -0.966, 1064.455, 90.596)" fill="none" stroke="#00cfcc" stroke-width="2">
      <rect width="16" height="16" stroke="none"/>
      <rect x="1" y="1" width="14" height="14" fill="none"/>
    </g>
    <g id="Rectangle_70" data-name="Rectangle 70" transform="translate(381 170) rotate(180)" fill="none" stroke="#00cfcc" stroke-width="2">
      <rect width="16" height="16" stroke="none"/>
      <rect x="1" y="1" width="14" height="14" fill="none"/>
    </g>
    <rect id="Rectangle_47" data-name="Rectangle 47" width="8" height="8" transform="matrix(0.966, 0.259, -0.259, 0.966, 589.07, 216)" fill="#00cfcc" opacity="0.5"/>
    <rect id="Rectangle_67" data-name="Rectangle 67" width="8" height="8" transform="translate(713 161)" fill="#00cfcc" opacity="0.5"/>
    <g id="Rectangle_61" data-name="Rectangle 61" transform="translate(1106 176) rotate(180)" fill="none" stroke="#00cfcc" stroke-width="1" opacity="0.5">
      <rect width="8" height="8" stroke="none"/>
      <rect x="0.5" y="0.5" width="7" height="7" fill="none"/>
    </g>
    <rect id="Rectangle_59" data-name="Rectangle 59" width="16" height="16" transform="translate(1313 194) rotate(180)" fill="#9b98ff"/>
    <g id="Rectangle_53" data-name="Rectangle 53" transform="matrix(0.966, 0.259, -0.259, 0.966, 668.141, 204)" fill="none" stroke="#9b98ff" stroke-width="2">
      <rect width="16" height="16" stroke="none"/>
      <rect x="1" y="1" width="14" height="14" fill="none"/>
    </g>
    <g id="Rectangle_65" data-name="Rectangle 65" transform="translate(542 124)" fill="none" stroke="#9b98ff" stroke-width="2">
      <rect width="16" height="16" stroke="none"/>
      <rect x="1" y="1" width="14" height="14" fill="none"/>
    </g>
    <rect id="Rectangle_48" data-name="Rectangle 48" width="8" height="8" transform="matrix(0.966, 0.259, -0.259, 0.966, 801.07, 215)" fill="#9b98ff" opacity="0.5"/>
    <rect id="Rectangle_64" data-name="Rectangle 64" width="8" height="8" transform="translate(505 144)" fill="#9b98ff" opacity="0.5"/>
    <g id="Rectangle_58" data-name="Rectangle 58" transform="matrix(-0.966, -0.259, 0.259, -0.966, 895.727, 98.798)" fill="none" stroke="#9b98ff" stroke-width="1" opacity="0.5">
      <rect width="8" height="8" stroke="none"/>
      <rect x="0.5" y="0.5" width="7" height="7" fill="none"/>
    </g>
    <g id="Rectangle_71" data-name="Rectangle 71" transform="translate(335 139) rotate(180)" fill="none" stroke="#9b98ff" stroke-width="1" opacity="0.5">
      <rect width="8" height="8" stroke="none"/>
      <rect x="0.5" y="0.5" width="7" height="7" fill="none"/>
    </g>
    <g id="Rectangle_54" data-name="Rectangle 54" transform="matrix(-0.966, -0.259, 0.259, -0.966, 75.727, 79.798)" fill="none" stroke="#f64975" stroke-width="1" opacity="0.5">
      <rect width="8" height="8" stroke="none"/>
      <rect x="0.5" y="0.5" width="7" height="7" fill="none"/>
    </g>
    <g id="Rectangle_57" data-name="Rectangle 57" transform="matrix(-0.966, -0.259, 0.259, -0.966, 254.455, 186.596)" fill="none" stroke="#ff9973" stroke-width="2">
      <rect width="16" height="16" stroke="none"/>
      <rect x="1" y="1" width="14" height="14" fill="none"/>
    </g>
    <g id="Rectangle_55" data-name="Rectangle 55" transform="matrix(-0.966, -0.259, 0.259, -0.966, 295.727, 226.798)" fill="none" stroke="#00cfcc" stroke-width="1" opacity="0.5">
      <rect width="8" height="8" stroke="none"/>
      <rect x="0.5" y="0.5" width="7" height="7" fill="none"/>
    </g>
    <rect id="Rectangle_46" data-name="Rectangle 46" width="16" height="16" transform="matrix(-0.966, -0.259, 0.259, -0.966, 34.455, 163.596)" fill="#9b98ff"/>
  </g>
</svg>
